PathFileType	4	(X/Y/Z)	s10c0301.trc
DataRate	CameraRate	NumFrames	NumMarkers	Units	OrigDataRate	OrigDataStartFrame	OrigNumFrames
200	200	4	50	mm	200	1000	2000
Frame#	Time	racr			lacr			c7			jug			rlel			rdr			llel			ldr			s2			lic			ric			lasi			rasi			rpsi			lpsi			rgt			lgt			rth1			rth2			rth3			rth4			rlfc			rmfc			rsh1			rsh2			rsh3			rsh4			rlmal			rmmal			rcal			rtoe			rmt5			lth1			lth2			lth4			lth3			llfc			lmfc			llmal			lmmal			lcal			lmt5			lsh1			lsh2			lsh3			lsh4			ltoe			SBIKE			LBIKE			RBIKE			
		X1	Y1	Z1	X2	Y2	Z2	X3	Y3	Z3	X4	Y4	Z4	X5	Y5	Z5	X6	Y6	Z6	X7	Y7	Z7	X8	Y8	Z8	X9	Y9	Z9	X10	Y10	Z10	X11	Y11	Z11	X12	Y12	Z12	X13	Y13	Z13	X14	Y14	Z14	X15	Y15	Z15	X16	Y16	Z16	X17	Y17	Z17	X18	Y18	Z18	X19	Y19	Z19	X20	Y20	Z20	X21	Y21	Z21	X22	Y22	Z22	X23	Y23	Z23	X24	Y24	Z24	X25	Y25	Z25	X26	Y26	Z26	X27	Y27	Z27	X28	Y28	Z28	X29	Y29	Z29	X30	Y30	Z30	X31	Y31	Z31	X32	Y32	Z32	X33	Y33	Z33	X34	Y34	Z34	X35	Y35	Z35	X36	Y36	Z36	X37	Y37	Z37	X38	Y38	Z38	X39	Y39	Z39	X40	Y40	Z40	X41	Y41	Z41	X42	Y42	Z42	X43	Y43	Z43	X44	Y44	Z44	X45	Y45	Z45	X46	Y46	Z46	X47	Y47	Z47	X48	Y48	Z48	X49	Y49	Z49	X50	Y50	Z50	
1000	5.0000	704.367713	1333.530278	-61.963552	701.515442	1294.088877	-371.986055	679.996734	1345.089496	-228.514879	676.429922	1199.468300	-206.059026	616.839204	1079.662422	34.832757	647.347570	878.108811	-58.381030	559.332524	1069.614448	-492.946534	646.799017	883.179297	-415.221278	146.567658	1145.491934	-237.136729	316.607865	1128.295741	-386.834245	320.838688	1164.134115	-83.271160	324.458389	1047.245285	-354.429690	321.668988	1072.906411	-111.077531	195.784176	1199.470451	-190.483172	200.548535	1195.341414	-303.570148	233.896641	1059.432456	-43.316654	177.550250	1000.803597	-415.091082	320.967480	943.990190	-24.856304	393.734147	896.064784	-43.574313	432.784666	819.708001	-46.894583	416.794499	920.824547	-60.880886	490.605527	734.315946	-68.036826	461.323306	722.951459	-182.810649	381.666468	697.222697	-30.410784	310.866053	644.616550	-44.010299	225.792897	631.841717	-41.475772	322.656963	622.917890	-73.036105	126.508811	597.642132	-51.862896	148.031304	591.721394	-134.829235	82.053773	633.429255	-97.913528	177.384677	408.815015	-107.736684	120.024921	468.533816	-42.645072	204.798710	877.961323	-428.305713	247.761744	804.273160	-413.529705	282.724267	814.626194	-407.865337	245.990051	716.651742	-397.107464	281.792804	616.204962	-374.918149	268.727224	613.145024	-262.970925	139.214677	267.482049	-378.401449	158.101993	266.541850	-296.174430	85.172893	251.005234	-337.448087	236.039688	157.844775	-401.874364	207.241133	513.311919	-411.614968	210.450326	427.420263	-397.108600	167.943338	348.973015	-391.859409	240.217897	423.666709	-373.647030	323.689173	163.974204	-345.714951	-217.923659	833.277659	-214.441926	-104.033829	80.416485	-418.324598	-104.012629	80.462532	-18.334912	
1001	5.0050	703.485899	1334.214540	-58.914154	701.286140	1294.099308	-369.894647	679.417566	1344.947415	-226.358649	676.152173	1199.267656	-203.135115	615.794538	1079.174560	35.727401	647.163809	878.134138	-58.102860	559.780802	1069.659243	-491.951045	646.826817	883.057888	-415.503655	146.662782	1142.477309	-239.521771	318.855634	1125.437611	-387.344679	319.312247	1162.764014	-83.744382	325.963038	1043.871193	-354.212707	320.925143	1071.881434	-110.822851	194.656716	1197.532154	-192.019562	201.709911	1192.293511	-305.779888	232.352508	1057.973232	-43.035858	178.460778	998.421847	-417.555018	321.896172	946.587186	-25.630274	396.109853	900.848299	-43.891413	437.597516	825.824839	-46.450436	418.254376	926.045911	-61.701626	496.933998	740.930976	-67.365648	468.833213	728.857988	-182.819290	388.001327	703.735208	-30.331516	317.382913	651.044254	-43.681493	232.263791	638.099482	-41.371386	329.311378	629.195378	-72.510285	132.958069	603.217569	-52.322220	154.743156	597.854873	-135.249553	86.906424	637.670294	-98.468108	188.509468	415.745783	-108.061643	130.058573	474.010655	-42.853661	203.055409	877.149069	-429.720913	243.509602	802.314122	-414.663589	279.115727	811.309219	-408.649265	239.193145	714.704133	-398.455927	273.164192	613.106428	-375.763320	259.234693	610.616356	-263.642746	131.691352	264.746952	-379.006086	150.628751	263.934867	-296.958274	77.478318	249.288691	-337.544497	226.573403	152.975390	-401.749837	199.365015	510.436954	-412.421088	202.454603	424.534024	-397.659453	159.982106	346.097015	-392.604571	232.114713	420.833513	-374.037515	314.328403	157.400991	-345.326497	-217.943262	833.281122	-214.427298	-104.041307	80.414770	-418.311905	-104.022548	80.468236	-18.345625	
1002	5.0100	702.757803	1334.573666	-56.124359	701.025235	1294.100218	-367.962678	678.824556	1344.674131	-224.155491	676.110161	1198.896699	-200.379212	614.640938	1078.637473	36.771427	646.901124	878.176433	-57.844359	560.374582	1069.602777	-491.056562	646.751973	882.514789	-414.988088	146.797890	1139.685908	-241.840771	321.006752	1122.602503	-387.312975	317.769811	1161.482581	-84.123164	327.606748	1041.245339	-353.973456	320.148234	1070.715838	-110.406809	193.062774	1195.841704	-193.222524	202.862694	1189.365831	-307.636328	230.394394	1056.601705	-42.858366	180.006444	997.187024	-420.313391	322.462917	949.344024	-26.187778	398.287627	905.685904	-43.924694	442.027774	832.019544	-45.791678	419.526502	931.531714	-62.112462	503.302272	747.313298	-66.848020	476.140363	735.081911	-182.744365	394.184920	710.493126	-29.898496	323.804658	657.356883	-43.380225	238.816754	644.064788	-41.380000	336.020774	635.421990	-71.915843	139.591750	608.012758	-52.892961	161.458425	603.681616	-136.398913	92.457659	641.096616	-99.069238	199.799229	421.932796	-108.370534	139.938445	478.733811	-43.149058	201.475297	876.665974	-431.097040	239.697050	800.667007	-415.986225	275.547973	808.671300	-409.659287	232.817542	713.227830	-400.125388	264.683594	610.726877	-376.910991	250.168292	608.337899	-264.804064	123.874374	262.508959	-379.759138	143.009770	261.963497	-297.923748	69.744835	248.370104	-338.085526	216.884215	148.915323	-401.642958	191.910318	507.957308	-413.577730	194.796167	422.300779	-398.546524	152.298042	343.726423	-393.756478	224.235267	418.513416	-374.535191	304.657015	151.754278	-345.246855	-217.958128	833.286842	-214.452622	-104.036031	80.416375	-418.315749	-104.022058	80.462766	-18.348203	
1003	5.0150	702.202585	1334.535210	-53.693414	700.612705	1294.163082	-366.129261	678.287558	1344.271007	-221.898070	676.011040	1198.360044	-197.798319	613.397701	1077.901130	37.922967	646.621649	878.144664	-57.555274	561.154968	1069.467976	-490.191130	646.923839	882.161005	-414.377783	146.993989	1137.175651	-244.154234	323.376501	1120.077076	-387.005982	316.297818	1160.170775	-84.534299	329.378372	1039.379527	-353.404438	319.789581	1069.884629	-109.261022	191.632409	1194.004438	-195.052096	203.739787	1186.061315	-309.135611	228.080665	1055.483935	-43.088737	182.442716	996.659016	-422.783167	322.771639	952.038152	-26.674300	400.046205	910.566502	-43.790748	446.029098	838.251878	-44.684061	420.791632	937.124188	-61.353161	508.985674	754.704080	-65.560686	483.218947	741.324550	-182.557084	400.304491	716.987067	-29.544960	330.353298	663.656744	-43.022863	245.415764	649.898675	-41.391922	342.793663	641.395263	-71.216030	146.576933	611.854231	-53.457292	168.083753	608.610620	-138.316647	98.274415	643.871985	-99.774095	211.778850	427.187785	-108.654819	149.954843	482.693916	-43.371121	200.176393	876.512751	-432.500645	237.646529	800.152100	-418.582779	272.193899	806.449398	-410.888194	226.830964	712.128450	-402.183750	256.485045	609.031591	-378.437452	242.533047	606.574791	-265.676354	115.860875	260.936655	-380.589352	135.132166	260.677784	-298.952795	61.826850	248.216347	-338.816204	207.023695	145.436200	-401.567165	184.695960	506.231860	-414.968279	187.350010	420.476640	-399.607213	144.870310	341.977779	-395.207717	216.451586	416.794394	-375.132424	294.801699	146.584851	-344.970465	-217.966548	833.253741	-214.459190	-104.035786	80.410147	-418.321462	-104.021175	80.457191	-18.342505	
